<svg width="112" height="111" viewBox="0 0 112 111" fill="none" xmlns="http://www.w3.org/2000/svg">
<path d="M56.0064 46.2218C74.3327 46.2218 92.8803 39.8887 92.8803 27.7849C92.8803 15.681 74.3327 9.34792 56.0064 9.34792C37.68 9.34792 19.1324 15.681 19.1324 27.7849C19.1324 39.8887 37.68 46.2218 56.0064 46.2218Z" fill="#FFB526"/>
<path d="M19.1324 46.2218C19.1324 58.3257 37.68 64.6588 56.0064 64.6588C74.3327 64.6588 92.8803 58.3257 92.8803 46.2218V37.0033C92.8803 49.1072 74.3327 55.4403 56.0064 55.4403C37.68 55.4403 19.1324 49.1072 19.1324 37.0033V46.2218Z" fill="#FFB526"/>
<path d="M19.1324 64.6588C19.1324 76.7626 37.68 83.0957 56.0064 83.0957C74.3327 83.0957 92.8803 76.7626 92.8803 64.6588V55.4403C92.8803 67.5442 74.3327 73.8772 56.0064 73.8772C37.68 73.8772 19.1324 67.5442 19.1324 55.4403V64.6588Z" fill="#FFB526"/>
<path d="M19.1324 83.0957C19.1324 95.1996 37.68 101.533 56.0064 101.533C74.3327 101.533 92.8803 95.1996 92.8803 83.0957V73.8773C92.8803 85.9811 74.3327 92.3142 56.0064 92.3142C37.68 92.3142 19.1324 85.9811 19.1324 73.8773V83.0957Z" fill="#FFB526"/>
</svg>
